<?xml version="1.0" encoding="UTF-8" standalone="no"?>
<!-- Created with Inkscape (http://www.inkscape.org/) -->

<svg
   xmlns:dc="http://purl.org/dc/elements/1.1/"
   xmlns:cc="http://creativecommons.org/ns#"
   xmlns:rdf="http://www.w3.org/1999/02/22-rdf-syntax-ns#"
   xmlns:svg="http://www.w3.org/2000/svg"
   xmlns="http://www.w3.org/2000/svg"
   xmlns:sodipodi="http://sodipodi.sourceforge.net/DTD/sodipodi-0.dtd"
   xmlns:inkscape="http://www.inkscape.org/namespaces/inkscape"
   width="793.70081"
   height="1122.5197"
   viewBox="0 0 210 297"
   version="1.1"
   id="svg8"
   inkscape:version="0.92.4 (5da689c313, 2019-01-14)"
   sodipodi:docname="av0kd-light.svg">
  <defs
     id="defs2" />
  <sodipodi:namedview
     id="base"
     pagecolor="#ffffff"
     bordercolor="#666666"
     borderopacity="1.0"
     inkscape:pageopacity="0.0"
     inkscape:pageshadow="2"
     inkscape:zoom="1"
     inkscape:cx="78.485066"
     inkscape:cy="595.42391"
     inkscape:document-units="px"
     inkscape:current-layer="text1680"
     showgrid="false"
     units="px"
     inkscape:pagecheckerboard="true"
     showborder="false"
     showguides="true"
     inkscape:guide-bbox="true"
     inkscape:window-width="1366"
     inkscape:window-height="705"
     inkscape:window-x="-8"
     inkscape:window-y="-8"
     inkscape:window-maximized="1" />
  <metadata
     id="metadata5">
    <rdf:RDF>
      <cc:Work
         rdf:about="">
        <dc:format>image/svg+xml</dc:format>
        <dc:type
           rdf:resource="http://purl.org/dc/dcmitype/StillImage" />
        <dc:title></dc:title>
      </cc:Work>
    </rdf:RDF>
  </metadata>
  <g
     inkscape:label="Capa 1"
     inkscape:groupmode="layer"
     id="layer1">
    <g
       aria-label="v0kd"
       style="font-style:normal;font-variant:normal;font-weight:normal;font-stretch:normal;font-size:22.57777786px;line-height:1.25;font-family:Hack;-inkscape-font-specification:Hack;letter-spacing:0px;word-spacing:0px;fill:#000000;fill-opacity:1;stroke:none;stroke-width:0.26458332"
       id="text1680">
      <g
         id="g6441"
         transform="translate(32.792417,-5.7003343)">
        <path
           inkscape:transform-center-y="-1.6533944e-06"
           inkscape:transform-center-x="-1.8325419e-06"
           d="m -73.555366,156.11092 -14.551483,-8.4013 0,-16.8026 14.551482,-8.40131 14.551483,8.40131 0,16.8026 z"
           inkscape:randomized="0"
           inkscape:rounded="0"
           inkscape:flatsided="true"
           sodipodi:arg2="2.0943951"
           sodipodi:arg1="1.5707963"
           sodipodi:r2="14.551482"
           sodipodi:r1="16.802605"
           sodipodi:cy="139.30832"
           sodipodi:cx="-73.555367"
           sodipodi:sides="6"
           id="path6293-06"
           style="font-style:normal;font-variant:normal;font-weight:normal;font-stretch:normal;font-size:22.57777786px;line-height:1.25;font-family:Hack;-inkscape-font-specification:Hack;letter-spacing:0px;word-spacing:0px;opacity:0.75;fill:#aa471f;fill-opacity:1;stroke:none;stroke-width:0;stroke-linecap:round;stroke-miterlimit:4;stroke-dasharray:none;stroke-opacity:1"
           sodipodi:type="star" />
        <path
           inkscape:transform-center-y="-1.6533944e-06"
           inkscape:transform-center-x="-1.8325419e-06"
           d="m -88.106849,147.70963 -14.551481,-8.4013 0,-16.8026 14.55148,-8.40131 14.551483,8.40131 0,16.8026 z"
           inkscape:randomized="0"
           inkscape:rounded="0"
           inkscape:flatsided="true"
           sodipodi:arg2="2.0943951"
           sodipodi:arg1="1.5707963"
           sodipodi:r2="14.551482"
           sodipodi:r1="16.802605"
           sodipodi:cy="130.90703"
           sodipodi:cx="-88.10685"
           sodipodi:sides="6"
           id="path6293"
           style="opacity:0.75;fill:#f2e880;fill-opacity:1;stroke:none;stroke-width:0;stroke-linecap:round;stroke-miterlimit:4;stroke-dasharray:none;stroke-opacity:1"
           sodipodi:type="star" />
        <path
           inkscape:transform-center-y="-1.6533944e-06"
           inkscape:transform-center-x="-1.8325419e-06"
           d="m -88.106849,164.51223 -14.551481,-8.4013 0,-16.80261 14.55148,-8.4013 14.551483,8.4013 0,16.80261 z"
           inkscape:randomized="0"
           inkscape:rounded="0"
           inkscape:flatsided="true"
           sodipodi:arg2="2.0943951"
           sodipodi:arg1="1.5707963"
           sodipodi:r2="14.551482"
           sodipodi:r1="16.802605"
           sodipodi:cy="147.70963"
           sodipodi:cx="-88.10685"
           sodipodi:sides="6"
           id="path6293-0"
           style="font-style:normal;font-variant:normal;font-weight:normal;font-stretch:normal;font-size:22.57777786px;line-height:1.25;font-family:Hack;-inkscape-font-specification:Hack;letter-spacing:0px;word-spacing:0px;opacity:0.75;fill:#558303;fill-opacity:1;stroke:none;stroke-width:0;stroke-linecap:round;stroke-miterlimit:4;stroke-dasharray:none;stroke-opacity:1"
           sodipodi:type="star" />
      </g>
      <path
         d="m -39.145972,129.46836 h 2.195885 l 3.736452,10.80696 3.74795,-10.80696 h 2.195884 l -4.575718,12.87639 h -2.724735 z"
         style="stroke-width:0.26458332;fill:#eceff4;fill-opacity:1"
         id="path1682"
         inkscape:connector-curvature="0" />
      <path
         d="m -19.387422,142.34475 q -2.645833,0 -3.979774,-2.16076 -1.344965,-2.17179 -1.344965,-6.37205 0,-4.21128 1.344965,-6.38307 1.333941,-2.16076 3.979774,-2.16076 2.645834,0 3.990799,2.16076 0.661458,1.05833 1.003212,2.64583 0.341753,1.57648 0.341753,3.73724 0,2.16077 -0.341753,3.73724 -0.341754,1.57648 -1.003212,2.63481 -1.35599,2.16076 -3.990799,2.16076 z m 0,-1.76388 q 1.576476,0 2.337153,-1.6757 0.760677,-1.66467 0.760677,-5.09323 0,-3.43958 -0.760677,-5.09323 -0.760677,-1.68672 -2.337153,-1.68672 -1.554427,0 -2.315104,1.6757 -0.385851,0.82682 -0.584288,2.08359 -0.187413,1.24575 -0.187413,3.02066 0,3.45061 0.771701,5.09323 0.771702,1.6757 2.315104,1.6757 z m 0.02205,-2.92145 q -0.352778,0 -0.551215,-0.47404 -0.187414,-0.47405 -0.319705,-1.11346 -0.110243,-0.50711 -0.187413,-1.22369 -0.06615,-0.71658 -0.06615,-1.09141 0,-0.26458 0.0441,-0.94809 0.0441,-0.68351 0.176389,-1.28984 0.319705,-1.57648 0.859896,-1.57648 0.30868,0 0.518142,0.41892 0.220486,0.41893 0.374827,1.19063 0.110243,0.55121 0.176388,1.23472 0.06615,0.68351 0.06615,1.05833 0,0.22049 -0.0441,0.87092 -0.03307,0.65044 -0.143316,1.33395 -0.275608,1.60954 -0.903993,1.60954 z"
         style="fill:#558303;fill-opacity:1;stroke:none;stroke-width:0.26458332;stroke-opacity:1;opacity:0.8"
         id="path1684"
         inkscape:connector-curvature="0" />
      <path
         d="m -10.104956,125.19093 h 2.0946181 v 9.9329 l 5.3247396,-5.1263 h 2.4694445 l -4.8617188,4.65225 5.6223959,7.69497 h -2.4804688 l -4.5640625,-6.37205 -1.5103299,1.42214 v 4.94991 h -2.0946181 z"
         style="fill:#f2e880;fill-opacity:1;stroke-width:0.26458332;opacity:0.8"
         id="path1686"
         inkscape:connector-curvature="0" />
      <path
         d="m 7.0929614,142.34475 q -1.344965,0 -2.2599823,-0.57326 -0.9150174,-0.57326 -1.4662327,-1.53238 -0.540191,-0.95911 -0.7827257,-2.11666 -0.2425347,-1.16858 -0.2425347,-2.34818 0,-2.95452 1.2898437,-4.67431 1.3008681,-1.71979 3.5057297,-1.71979 1.080381,0 1.940277,0.46302 0.859896,0.452 1.3670136,1.41111 v -6.38307 h 2.028472 v 17.15382 h -1.830034 l -0.198438,-1.55443 q -1.0914056,1.87413 -3.3513886,1.87413 z m 0.363802,-1.71979 q 0.959115,0 1.543403,-0.45199 0.595313,-0.452 0.903993,-1.16858 0.3197046,-0.7276 0.4299476,-1.55443 0.110243,-0.83784 0.110243,-1.59852 0,-0.74965 -0.110243,-1.57648 -0.110243,-0.82682 -0.4299476,-1.5434 -0.30868,-0.7276 -0.903993,-1.1796 -0.584288,-0.452 -1.543403,-0.452 -0.9701385,0 -1.565451,0.452 -0.5842882,0.452 -0.8929688,1.1796 -0.2976562,0.71658 -0.4078993,1.5434 -0.110243,0.82683 -0.110243,1.57648 0,0.74965 0.110243,1.5875 0.1102431,0.82682 0.4078993,1.55443 0.3086806,0.71658 0.8929688,1.1796 0.5953125,0.45199 1.565451,0.45199 z"
         style="fill:#aa471f;fill-opacity:1;stroke-width:0.26458332;opacity:0.8"
         id="path1688"
         inkscape:connector-curvature="0" />
      <path
         inkscape:connector-curvature="0"
         d="m -52.028108,142.34475 h 2.195885 l 3.736451,-10.80697 3.74795,10.80697 h 2.195884 l -4.575717,-12.87639 h -2.724736 z"
         style="font-style:normal;font-variant:normal;font-weight:normal;font-stretch:normal;font-size:22.57777786px;line-height:1.25;font-family:Hack;-inkscape-font-specification:Hack;letter-spacing:0px;word-spacing:0px;fill:#eceff4;fill-opacity:1;stroke:none;stroke-width:0.26458332"
         id="path1682-0" />
    </g>
  </g>
</svg>
